<svg version="1.0" xmlns="http://www.w3.org/2000/svg"  width="300.000000pt" height="300.000000pt" viewBox="0 0 300.000000 169.000000"  preserveAspectRatio="xMidYMid meet">  <g transform="translate(0.000000,169.000000) scale(0.100000,-0.100000)" fill="#000000" stroke="none"> <path d="M893 1030 c-39 -20 -43 -21 -67 -5 -20 13 -43 16 -106 14 -116 -6 -118 -8 -122 -187 -3 -143 -3 -144 22 -164 21 -17 35 -20 87 -15 34 2 80 13 101 24 l39 19 27 -23 c22 -18 39 -23 84 -23 31 0 69 7 84 14 24 13 32 13 56 0 22 -11 44 -12 89 -6 32 4 72 5 89 0 16 -4 55 -3 87 3 32 5 68 7 80 3 19 -6 167 -7 607 -5 63 1 136 -2 162 -5 94 -13 128 11 128 91 0 46 6 64 40 117 22 35 40 73 40 86 0 31 -34 62 -72 64 -86 5 -303 10 -453 10 -8 0 -60 0 -115 0 -55 0 -108 0 -117 0 -134 -2 -159 -5 -174 -18 -14 -12 -20 -12 -50 0 -32 13 -129 18 -339 14 -41 0 -95 2 -120 6 -36 6 -54 3 -87 -14z m887 -55 c0 -13 3 -13 25 1 21 14 31 15 51 6 34 -16 44 -50 44 -150 l0 -87 -46 0 -45 0 6 71 c4 39 4 81 1 92 -7 22 -34 37 -33 19 0 -7 -1 -51 -1 -99 l-2 -87 -90 1 c-79 1 -90 3 -90 18 0 12 -10 19 -28 22 -25 4 -28 1 -24 -19 4 -21 1 -23 -42 -23 -25 0 -46 3 -46 8 1 4 16 57 34 117 l34 110 48 3 49 3 30 -113 29 -113 7 45 c4 25 8 75 8 112 l1 67 33 4 c17 2 35 5 40 5 4 1 7 -5 7 -13z m230 0 c0 -14 3 -14 25 1 33 21 64 10 81 -31 16 -40 30 -190 18 -197 -5 -3 -29 -3 -52 0 l-44 4 7 68 c4 38 4 77 1 88 -7 22 -34 37 -33 19 0 -7 -1 -51 -1 -99 l-2 -88 -46 0 -47 0 6 68 c4 37 7 90 7 119 0 51 1 52 33 56 17 2 35 5 40 5 4 1 7 -5 7 -13z m-1209 -10 c33 -18 49 -50 49 -98 0 -73 -61 -127 -141 -127 l-49 0 0 114 c0 127 -3 123 73 125 21 0 51 -6 68 -14z m222 -3 c18 -20 39 -104 29 -114 -4 -4 -32 -8 -63 -10 -39 -2 -55 -7 -52 -15 7 -18 40 -25 62 -14 29 16 31 14 31 -24 0 -90 -148 -63 -166 31 -9 49 3 99 32 134 21 25 33 30 68 30 28 0 48 -6 59 -18z m247 11 c0 -5 -13 -57 -28 -118 l-28 -110 -45 -3 -44 -3 -34 103 c-19 57 -36 109 -38 116 -4 8 7 12 36 12 38 0 41 -2 50 -37 26 -106 23 -104 39 -25 l14 72 39 0 c22 0 39 -3 39 -7z m173 -33 c45 -50 32 -135 -29 -175 -14 -9 -52 -19 -83 -22 l-56 -5 3 115 3 116 27 4 c57 10 106 -2 135 -33z m788 -7 l13 -38 14 38 c14 35 17 37 58 37 l44 0 -43 -67 c-38 -61 -43 -73 -39 -115 l4 -48 -46 0 -46 0 0 50 c0 36 -8 67 -30 109 -16 32 -26 61 -23 65 4 3 23 6 44 6 34 0 38 -3 50 -37z"/> <path d="M1564 872 c-13 -21 -7 -42 12 -42 15 0 17 14 6 42 -7 17 -8 17 -18 0z"/> <path d="M738 873 c5 -79 5 -79 25 -59 22 23 22 68 -1 89 -10 10 -21 17 -23 17 -2 0 -3 -21 -1 -47z"/> <path d="M955 911 c-3 -6 -10 -9 -15 -6 -4 3 -6 -4 -3 -15 4 -16 11 -19 27 -14 30 9 32 13 14 30 -11 11 -18 12 -23 5z"/> <path d="M1354 864 c0 -36 3 -54 11 -54 38 0 45 73 10 96 -19 12 -20 11 -21 -42z"/> <path d="M2450 930 c0 -8 -16 -41 -35 -73 -29 -48 -35 -68 -35 -113 0 -49 -4 -59 -29 -83 l-29 -27 -444 2 c-243 1 -450 2 -458 2 -53 2 -314 -9 -318 -12 -2 -3 270 -5 604 -5 l609 -1 39 24 c32 19 43 34 57 77 19 57 15 84 -8 54 -12 -17 -13 -17 -13 -2 0 10 15 33 34 52 37 37 55 90 37 108 -8 8 -11 7 -11 -3z"/> <path d="M592 645 c4 -25 57 -63 66 -49 4 6 32 14 62 18 30 4 70 12 87 18 27 10 42 9 83 -6 38 -14 66 -17 111 -13 66 7 99 20 80 31 -7 4 -18 3 -26 -4 -7 -6 -38 -14 -68 -17 -41 -4 -64 -1 -100 15 -41 18 -49 19 -84 7 -54 -20 -163 -19 -192 1 -21 15 -23 15 -19 -1z"/> <path d="M833 603 c-12 -8 -47 -17 -78 -20 -31 -3 -51 -9 -45 -13 7 -4 27 -4 46 0 19 4 34 6 34 4 0 -1 14 3 31 10 28 12 39 11 87 -6 30 -10 59 -17 66 -15 6 2 -5 7 -24 11 -19 5 -49 16 -65 25 -27 16 -34 16 -52 4z"/> <path d="M2340 594 c-20 -12 -54 -13 -175 -8 -82 3 -148 4 -145 1 3 -3 75 -9 160 -12 150 -7 156 -7 174 14 22 24 20 24 -14 5z"/> </g> </svg> 